<mxfile host="app.diagrams.net" agent="Mozilla/5.0 (X11; Linux x86_64) AppleWebKit/537.36 (KHTML, like Gecko) Chrome/134.0.0.0 Safari/537.36" version="26.2.14">
  <diagram name="Page-1" id="uLzStE1T50xQGXaOhCVK">
    <mxGraphModel>
      <root>
        <mxCell id="0" />
        <mxCell id="1" parent="0" />
        <mxCell id="2" value="Consumers" style="whiteSpace=wrap;strokeWidth=2;" vertex="1" parent="1">
          <mxGeometry x="652" y="8" width="137" height="54" as="geometry" />
        </mxCell>
        <mxCell id="3" value="Nearby Restaurants" style="whiteSpace=wrap;strokeWidth=2;" vertex="1" parent="1">
          <mxGeometry x="104" y="135" width="199" height="54" as="geometry" />
        </mxCell>
        <mxCell id="4" value="Hand Raise" style="whiteSpace=wrap;strokeWidth=2;" vertex="1" parent="1">
          <mxGeometry x="352" y="135" width="139" height="54" as="geometry" />
        </mxCell>
        <mxCell id="5" value="Consumer to Test Beverages" style="whiteSpace=wrap;strokeWidth=2;" vertex="1" parent="1">
          <mxGeometry x="8" y="262" width="260" height="78" as="geometry" />
        </mxCell>
        <mxCell id="6" value="Application" style="whiteSpace=wrap;strokeWidth=2;" vertex="1" parent="1">
          <mxGeometry x="744" y="135" width="141" height="54" as="geometry" />
        </mxCell>
        <mxCell id="7" value="Phone Number or Social Media" style="whiteSpace=wrap;strokeWidth=2;" vertex="1" parent="1">
          <mxGeometry x="400" y="262" width="260" height="78" as="geometry" />
        </mxCell>
        <mxCell id="8" value="Consumer&#39;s Interest" style="whiteSpace=wrap;strokeWidth=2;" vertex="1" parent="1">
          <mxGeometry x="710" y="274" width="200" height="54" as="geometry" />
        </mxCell>
        <mxCell id="9" value="Suppliers" style="whiteSpace=wrap;strokeWidth=2;" vertex="1" parent="1">
          <mxGeometry x="1550" y="135" width="125" height="54" as="geometry" />
        </mxCell>
        <mxCell id="10" value="Beverages" style="whiteSpace=wrap;strokeWidth=2;" vertex="1" parent="1">
          <mxGeometry x="1203" y="274" width="132" height="54" as="geometry" />
        </mxCell>
        <mxCell id="11" value="Location and Zip Code" style="whiteSpace=wrap;strokeWidth=2;" vertex="1" parent="1">
          <mxGeometry x="1083" y="413" width="220" height="54" as="geometry" />
        </mxCell>
        <mxCell id="12" value="Find Product" style="whiteSpace=wrap;strokeWidth=2;" vertex="1" parent="1">
          <mxGeometry x="960" y="274" width="150" height="54" as="geometry" />
        </mxCell>
        <mxCell id="13" value="Consumer Interest" style="whiteSpace=wrap;strokeWidth=2;" vertex="1" parent="1">
          <mxGeometry x="1405" y="274" width="191" height="54" as="geometry" />
        </mxCell>
        <mxCell id="14" value="Product Price" style="whiteSpace=wrap;strokeWidth=2;" vertex="1" parent="1">
          <mxGeometry x="1646" y="274" width="155" height="54" as="geometry" />
        </mxCell>
        <mxCell id="15" value="Most Interested Zip Code Area" style="whiteSpace=wrap;strokeWidth=2;" vertex="1" parent="1">
          <mxGeometry x="1851" y="262" width="260" height="78" as="geometry" />
        </mxCell>
        <mxCell id="16" value="Discover" style="curved=1;startArrow=none;endArrow=block;exitX=0;exitY=0.66;entryX=0.5;entryY=0;" edge="1" parent="1" source="2" target="3">
          <mxGeometry relative="1" as="geometry">
            <Array as="points">
              <mxPoint x="203" y="99" />
            </Array>
          </mxGeometry>
        </mxCell>
        <mxCell id="17" value="Show Interest" style="curved=1;startArrow=none;endArrow=block;exitX=0;exitY=0.77;entryX=0.5;entryY=0;" edge="1" parent="1" source="2" target="4">
          <mxGeometry relative="1" as="geometry">
            <Array as="points">
              <mxPoint x="422" y="99" />
            </Array>
          </mxGeometry>
        </mxCell>
        <mxCell id="18" value="Invite" style="curved=1;startArrow=none;endArrow=block;exitX=0.5;exitY=1;entryX=0.63;entryY=0;" edge="1" parent="1" source="3" target="5">
          <mxGeometry relative="1" as="geometry">
            <Array as="points">
              <mxPoint x="203" y="226" />
            </Array>
          </mxGeometry>
        </mxCell>
        <mxCell id="19" value="Logged In" style="curved=1;startArrow=none;endArrow=block;exitX=0.79;exitY=1;entryX=0.5;entryY=0;" edge="1" parent="1" source="2" target="6">
          <mxGeometry relative="1" as="geometry">
            <Array as="points">
              <mxPoint x="815" y="99" />
            </Array>
          </mxGeometry>
        </mxCell>
        <mxCell id="20" value="Login/Register" style="curved=1;startArrow=none;endArrow=block;exitX=0;exitY=0.79;entryX=0.5;entryY=0;" edge="1" parent="1" source="6" target="7">
          <mxGeometry relative="1" as="geometry">
            <Array as="points">
              <mxPoint x="530" y="226" />
            </Array>
          </mxGeometry>
        </mxCell>
        <mxCell id="21" value="View Analytics" style="curved=1;startArrow=none;endArrow=block;exitX=1;exitY=0.69;entryX=0.5;entryY=0;" edge="1" parent="1" source="3" target="8">
          <mxGeometry relative="1" as="geometry">
            <Array as="points">
              <mxPoint x="810" y="226" />
            </Array>
          </mxGeometry>
        </mxCell>
        <mxCell id="22" value="Invite" style="curved=1;startArrow=none;endArrow=block;exitX=0.36;exitY=1;entryX=0.5;entryY=0;" edge="1" parent="1" source="3" target="5">
          <mxGeometry relative="1" as="geometry">
            <Array as="points">
              <mxPoint x="138" y="226" />
            </Array>
          </mxGeometry>
        </mxCell>
        <mxCell id="23" value="Upload Products" style="curved=1;startArrow=none;endArrow=block;exitX=0;exitY=0.76;entryX=0.66;entryY=0;" edge="1" parent="1" source="9" target="10">
          <mxGeometry relative="1" as="geometry">
            <Array as="points">
              <mxPoint x="1329" y="226" />
            </Array>
          </mxGeometry>
        </mxCell>
        <mxCell id="24" value="Discover Products" style="curved=1;startArrow=none;endArrow=block;exitX=1;exitY=0.66;entryX=0.36;entryY=0;" edge="1" parent="1" source="2" target="10">
          <mxGeometry relative="1" as="geometry">
            <Array as="points">
              <mxPoint x="1216" y="99" />
              <mxPoint x="1216" y="226" />
            </Array>
          </mxGeometry>
        </mxCell>
        <mxCell id="25" value="Based on" style="curved=1;startArrow=none;endArrow=block;exitX=0.5;exitY=1;entryX=0.65;entryY=0;" edge="1" parent="1" source="10" target="11">
          <mxGeometry relative="1" as="geometry">
            <Array as="points">
              <mxPoint x="1269" y="377" />
            </Array>
          </mxGeometry>
        </mxCell>
        <mxCell id="26" value="Search Functionality" style="curved=1;startArrow=none;endArrow=block;exitX=1;exitY=0.88;entryX=0.5;entryY=0;" edge="1" parent="1" source="6" target="12">
          <mxGeometry relative="1" as="geometry">
            <Array as="points">
              <mxPoint x="1035" y="226" />
            </Array>
          </mxGeometry>
        </mxCell>
        <mxCell id="27" value="Based on" style="curved=1;startArrow=none;endArrow=block;exitX=0.5;exitY=1;entryX=0.2;entryY=0;" edge="1" parent="1" source="12" target="11">
          <mxGeometry relative="1" as="geometry">
            <Array as="points">
              <mxPoint x="1035" y="377" />
            </Array>
          </mxGeometry>
        </mxCell>
        <mxCell id="28" value="View Demand" style="curved=1;startArrow=none;endArrow=block;exitX=0.12;exitY=1;entryX=0.5;entryY=0;" edge="1" parent="1" source="9" target="13">
          <mxGeometry relative="1" as="geometry">
            <Array as="points">
              <mxPoint x="1500" y="226" />
            </Array>
          </mxGeometry>
        </mxCell>
        <mxCell id="29" value="Adjust Price" style="curved=1;startArrow=none;endArrow=block;exitX=0.88;exitY=1;entryX=0.5;entryY=0;" edge="1" parent="1" source="9" target="14">
          <mxGeometry relative="1" as="geometry">
            <Array as="points">
              <mxPoint x="1724" y="226" />
            </Array>
          </mxGeometry>
        </mxCell>
        <mxCell id="30" value="Supply to" style="curved=1;startArrow=none;endArrow=block;exitX=1;exitY=0.7;entryX=0.5;entryY=0;" edge="1" parent="1" source="9" target="15">
          <mxGeometry relative="1" as="geometry">
            <Array as="points">
              <mxPoint x="1981" y="226" />
            </Array>
          </mxGeometry>
        </mxCell>
      </root>
    </mxGraphModel>
  </diagram>
</mxfile>
